<svg xmlns="http://www.w3.org/2000/svg" width="83" height="46.938" viewBox="0 0 83 46.938">
  <defs>
    <style>
      .cls-1 {
        fill: #21cde6;
        fill-rule: evenodd;
      }
    </style>
  </defs>
  <path id="Forma_1" data-name="Forma 1" class="cls-1" d="M81.666,1.583A5.008,5.008,0,0,0,78,.035H5A5.01,5.01,0,0,0,1.333,1.583,5.014,5.014,0,0,0-.215,5.25,5.01,5.01,0,0,0,1.333,8.916l36.5,36.5a5.114,5.114,0,0,0,7.333,0l36.5-36.5A5.014,5.014,0,0,0,83.215,5.25,5.018,5.018,0,0,0,81.666,1.583Z" transform="translate(0 -0.031)"/>
</svg>
