<svg xmlns="http://www.w3.org/2000/svg" width="511.969" height="511.969" viewBox="0 0 511.969 511.969">
  <defs>
    <style>
      .cls-1 {
        fill: #21cde6;
        fill-rule: evenodd;
      }
    </style>
  </defs>
  <path id="Forma_1" data-name="Forma 1" class="cls-1" d="M508.834,478.671L360.114,329.95a201.6,201.6,0,0,0,45.187-127.3C405.3,90.91,314.391,0,202.65,0S0,90.91,0,202.651,90.91,405.3,202.651,405.3a201.608,201.608,0,0,0,127.3-45.187l148.721,148.72a10.668,10.668,0,0,0,15.085,0l15.079-15.08A10.666,10.666,0,0,0,508.834,478.671ZM202.651,362.639c-88.222,0-159.987-71.766-159.987-159.988S114.429,42.664,202.651,42.664s159.988,71.765,159.988,159.987S290.873,362.639,202.651,362.639Z"/>
</svg>
